<svg xmlns="http://www.w3.org/2000/svg">
<symbol id="bar_chart" viewBox="0 0 24 24" >
<g fill-rule="evenodd" clip-rule="evenodd"><path d="M18 9a1 1 0 0 1 1 1v10a1 1 0 1 1-2 0V10a1 1 0 0 1 1-1ZM12 3a1 1 0 0 1 1 1v16a1 1 0 1 1-2 0V4a1 1 0 0 1 1-1ZM6 13a1 1 0 0 1 1 1v6a1 1 0 1 1-2 0v-6a1 1 0 0 1 1-1Z"/></g>
</symbol>
<symbol id="bell" viewBox="0 0 24 24">
<g fill-rule="evenodd" clip-rule="evenodd"><path d="M7.05 3.05A7 7 0 0 1 19 8c0 3.353.717 5.435 1.378 6.646.332.608.655 1.007.88 1.244a3.026 3.026 0 0 0 .306.284l.002.002A1 1 0 0 1 21 18H3a1 1 0 0 1-.563-1.826l.052-.042c.053-.044.141-.123.254-.242.224-.237.547-.636.88-1.244C4.282 13.435 5 11.353 5 8a7 7 0 0 1 2.05-4.95ZM2.444 16.17ZM5.149 16h13.702a9.421 9.421 0 0 1-.229-.396C17.783 14.065 17 11.647 17 8A5 5 0 0 0 7 8c0 3.647-.783 6.065-1.622 7.604-.076.14-.153.271-.229.396ZM9.768 20.135a1 1 0 0 1 1.367.363 1 1 0 0 0 1.73 0 1 1 0 1 1 1.73 1.004 3 3 0 0 1-5.19 0 1 1 0 0 1 .363-1.367Z"/></g>
</symbol>
<g fill-rule="evenodd" clip-rule="evenodd"><path d="M5 5a1 1 0 0 0-1 1v14a1 1 0 0 0 1 1h14a1 1 0 0 0 1-1V6a1 1 0 0 0-1-1H5ZM2 6a3 3 0 0 1 3-3h14a3 3 0 0 1 3 3v14a3 3 0 0 1-3 3H5a3 3 0 0 1-3-3V6Z"/><path d="M16 1a1 1 0 0 1 1 1v4a1 1 0 1 1-2 0V2a1 1 0 0 1 1-1ZM8 1a1 1 0 0 1 1 1v4a1 1 0 0 1-2 0V2a1 1 0 0 1 1-1ZM2 10a1 1 0 0 1 1-1h18a1 1 0 1 1 0 2H3a1 1 0 0 1-1-1Z"/></g>
<symbol id="cart" viewBox="0 0 24 24">
<g fill-rule="evenodd" clip-path="url(#a)" clip-rule="evenodd"><path d="M7 21a2 2 0 1 1 4 0 2 2 0 0 1-4 0ZM18 21a2 2 0 1 1 4 0 2 2 0 0 1-4 0ZM0 1a1 1 0 0 1 1-1h4a1 1 0 0 1 .98.804L6.82 5H23a1 1 0 0 1 .982 1.187l-1.601 8.398A3 3 0 0 1 19.39 17H9.69a3 3 0 0 1-2.99-2.414L5.03 6.239a.994.994 0 0 1-.017-.084L4.18 2H1a1 1 0 0 1-1-1Zm7.22 6 1.44 7.195a1 1 0 0 0 1 .805h9.76a1 1 0 0 0 .998-.802L21.792 7H7.221Z"/></g>
</symbol>
<symbol id="check" viewBox="0 0 24 24">
<path fill-rule="evenodd" d="M20.707 5.293a1 1 0 0 1 0 1.414l-11 11a1 1 0 0 1-1.414 0l-5-5a1 1 0 1 1 1.414-1.414L9 15.586 19.293 5.293a1 1 0 0 1 1.414 0Z" clip-rule="evenodd"/>
</symbol>
<symbol id="credit_card" viewBox="0 0 24 24">
<g fill-rule="evenodd" clip-rule="evenodd"><path d="M3 5a1 1 0 0 0-1 1v12a1 1 0 0 0 1 1h18a1 1 0 0 0 1-1V6a1 1 0 0 0-1-1H3ZM0 6a3 3 0 0 1 3-3h18a3 3 0 0 1 3 3v12a3 3 0 0 1-3 3H3a3 3 0 0 1-3-3V6Z"/><path d="M0 10a1 1 0 0 1 1-1h22a1 1 0 1 1 0 2H1a1 1 0 0 1-1-1Z"/></g>
</symbol>
<symbol id="download" viewBox="0 0 24 24">
<g fill-rule="evenodd" clip-rule="evenodd"><path d="M3 14a1 1 0 0 1 1 1v4a1 1 0 0 0 1 1h14a1 1 0 0 0 1-1v-4a1 1 0 1 1 2 0v4a3 3 0 0 1-3 3H5a3 3 0 0 1-3-3v-4a1 1 0 0 1 1-1Z"/><path d="M6.293 9.293a1 1 0 0 1 1.414 0L12 13.586l4.293-4.293a1 1 0 1 1 1.414 1.414l-5 5a1 1 0 0 1-1.414 0l-5-5a1 1 0 0 1 0-1.414Z"/><path d="M12 2a1 1 0 0 1 1 1v12a1 1 0 1 1-2 0V3a1 1 0 0 1 1-1Z"/></g>
</symbol>
<symbol id="edit" viewBox="0 0 24 24">
<g fill-rule="evenodd" clip-rule="evenodd"><path d="M1.879 3.879A3 3 0 0 1 4 3h7a1 1 0 1 1 0 2H4a1 1 0 0 0-1 1v14a1 1 0 0 0 1 1h14a1 1 0 0 0 1-1v-7a1 1 0 1 1 2 0v7a3 3 0 0 1-3 3H4a3 3 0 0 1-3-3V6a3 3 0 0 1 .879-2.121Z"/><path d="M20 2.879c-.297 0-.583.118-.793.328l-9.304 9.304-.529 2.115 2.115-.529 9.304-9.304A1.121 1.121 0 0 0 20 2.879Zm-2.207-1.086a3.121 3.121 0 0 1 4.414 4.414l-9.5 9.5a1 1 0 0 1-.464.263l-4 1a1 1 0 0 1-1.213-1.213l1-4a1 1 0 0 1 .263-.464l9.5-9.5Z"/></g>
</symbol>
<symbol id="filter" viewBox="0 0 24 24">
<path fill-rule="evenodd" d="M1.093 2.58A1 1 0 0 1 2 2h20a1 1 0 0 1 .764 1.646L15 12.826V21a1 1 0 0 1-1.447.894l-4-2A1 1 0 0 1 9 19v-6.174l-7.764-9.18a1 1 0 0 1-.143-1.067ZM4.155 4l6.609 7.814a1 1 0 0 1 .236.646v5.922l2 1V12.46a1 1 0 0 1 .236-.646L19.845 4H4.155Z" clip-rule="evenodd"/>
</symbol>
<symbol id="help" viewBox="0 0 24 24">
<g fill-rule="evenodd" clip-rule="evenodd"><path d="M12 3a9 9 0 1 0 0 18 9 9 0 0 0 0-18ZM1 12C1 5.925 5.925 1 12 1s11 4.925 11 11-4.925 11-11 11S1 18.075 1 12Z"/><path d="M12.258 8.024a2 2 0 0 0-2.224 1.308 1 1 0 0 1-1.887-.664 4 4 0 0 1 7.773 1.333c0 1.53-1.135 2.54-1.945 3.081a8.045 8.045 0 0 1-1.686.848l-.035.013-.011.003-.004.002h-.001s-.002 0-.318-.948l.316.949a1 1 0 0 1-.633-1.897h-.001l.017-.006a5.763 5.763 0 0 0 .364-.147c.247-.11.568-.272.882-.481.69-.46 1.055-.949 1.055-1.418v-.002a2 2 0 0 0-1.662-1.974ZM12 15a1 1 0 0 1 1 1v.5a1 1 0 1 1-2 0V16a1 1 0 0 1 1-1Z"/></g>
</symbol>
<symbol id="home" viewBox="0 0 24 24">
<g fill-rule="evenodd" clip-rule="evenodd"><path d="M11.386 1.21a1 1 0 0 1 1.228 0l9 7A1 1 0 0 1 22 9v11a3 3 0 0 1-3 3H5a3 3 0 0 1-3-3V9a1 1 0 0 1 .386-.79l9-7ZM4 9.49V20a1 1 0 0 0 1 1h14a1 1 0 0 0 1-1V9.49l-8-6.223-8 6.222Z"/><path d="M8 12a1 1 0 0 1 1-1h6a1 1 0 0 1 1 1v10a1 1 0 1 1-2 0v-9h-4v9a1 1 0 1 1-2 0V12Z"/></g>
</symbol>
<symbol id="image" viewBox="0 0 24 24">
<g fill-rule="evenodd" clip-rule="evenodd"><path d="M5 4a1 1 0 0 0-1 1v14a1 1 0 0 0 1 1h14a1 1 0 0 0 1-1V5a1 1 0 0 0-1-1H5ZM2 5a3 3 0 0 1 3-3h14a3 3 0 0 1 3 3v14a3 3 0 0 1-3 3H5a3 3 0 0 1-3-3V5Z"/><path d="M8.5 8a.5.5 0 1 0 0 1 .5.5 0 0 0 0-1ZM6 8.5a2.5 2.5 0 1 1 5 0 2.5 2.5 0 0 1-5 0ZM15.293 9.293a1 1 0 0 1 1.414 0l5 5a1 1 0 0 1-1.414 1.414L16 11.414 5.707 21.707a1 1 0 0 1-1.414-1.414l11-11Z"/></g>
</symbol>
<symbol id="inbox" viewBox="0 0 24 24">
<g fill-rule="evenodd" clip-rule="evenodd"><path d="M1 12a1 1 0 0 1 1-1h6a1 1 0 0 1 .832.445L10.535 14h2.93l1.703-2.555A1 1 0 0 1 16 11h6a1 1 0 1 1 0 2h-5.465l-1.703 2.555A1 1 0 0 1 14 16h-4a1 1 0 0 1-.832-.445L7.465 13H2a1 1 0 0 1-1-1Z"/><path d="M7.24 3h9.52a3.002 3.002 0 0 1 2.685 1.665l3.45 6.887A1 1 0 0 1 23 12v6a3 3 0 0 1-3 3H4a3 3 0 0 1-3-3v-6a1 1 0 0 1 .106-.448l3.448-6.887.001-.001A3 3 0 0 1 7.24 3ZM5.45 5.11l.894.448L3 12.236V18a1 1 0 0 0 1 1h16a1 1 0 0 0 1-1v-5.764l-3.344-6.678-.002-.003A1 1 0 0 0 16.76 5H7.24a1 1 0 0 0-.894.555L5.45 5.11Z"/></g>
</symbol>
<symbol id="map" viewBox="0 0 24 24">
<g fill-rule="evenodd" clip-rule="evenodd"><path d="M7.504 1.132a1 1 0 0 1 .943-.026l7.522 3.76 6.535-3.734A1 1 0 0 1 24 2v16a1 1 0 0 1-.504.868l-7 4a1 1 0 0 1-.943.026l-7.522-3.76-6.535 3.734A1 1 0 0 1 0 22V6a1 1 0 0 1 .504-.868l7-4Zm.527 2.002L2 6.58v13.697l5.504-3.145a1 1 0 0 1 .943-.026l7.522 3.76L22 17.42V3.723l-5.504 3.145a1 1 0 0 1-.943.026L8.03 3.134Z"/><path d="M8 1a1 1 0 0 1 1 1v16a1 1 0 1 1-2 0V2a1 1 0 0 1 1-1ZM16 5a1 1 0 0 1 1 1v16a1 1 0 1 1-2 0V6a1 1 0 0 1 1-1Z"/></g>
</symbol>
<symbol id="menu" viewBox="0 0 24 24">
<g fill-rule="evenodd" clip-rule="evenodd"><path d="M2 12a1 1 0 0 1 1-1h18a1 1 0 1 1 0 2H3a1 1 0 0 1-1-1ZM2 6a1 1 0 0 1 1-1h18a1 1 0 1 1 0 2H3a1 1 0 0 1-1-1ZM2 18a1 1 0 0 1 1-1h18a1 1 0 1 1 0 2H3a1 1 0 0 1-1-1Z"/></g>
</symbol>
<symbol id="moon" viewBox="0 0 24 24">
<path fill-rule="evenodd" d="M12.081 2.509a1 1 0 0 1-.067 1.085 6 6 0 0 0 8.392 8.392l.594.804.996.092A10 10 0 1 1 11.118 2.004a1 1 0 0 1 .963.505Zm7.48 12.175A7.999 7.999 0 0 1 9.316 4.439a8 8 0 1 0 10.245 10.245Z" clip-rule="evenodd"/>
</symbol>
<symbol id="pin" viewBox="0 0 24 24">
<g fill-rule="evenodd" clip-rule="evenodd"><path d="M12 2a8 8 0 0 0-8 8c0 3.098 2.016 6.104 4.226 8.437A29.419 29.419 0 0 0 12 21.773a29.412 29.412 0 0 0 3.774-3.335C17.984 16.103 20 13.097 20 10a8 8 0 0 0-8-8Zm0 21-.555.832-.003-.002-.007-.005-.023-.015a28.518 28.518 0 0 1-1.441-1.074 31.428 31.428 0 0 1-3.197-2.923C4.484 17.396 2 13.902 2 10a10 10 0 0 1 20 0c0 3.902-2.484 7.396-4.774 9.813a31.433 31.433 0 0 1-4.254 3.726 18.887 18.887 0 0 1-.384.27l-.023.016-.007.005-.002.001s-.001.001-.556-.831Zm0 0 .555.832a1 1 0 0 1-1.11 0L12 23Z"/><path d="M12 8a2 2 0 1 0 0 4 2 2 0 0 0 0-4Zm-4 2a4 4 0 1 1 8 0 4 4 0 0 1-8 0Z"/></g>
</symbol>
<symbol id="search" viewBox="0 0 24 24">
<g fill-rule="evenodd" clip-rule="evenodd"><path d="M11 4a7 7 0 1 0 0 14 7 7 0 0 0 0-14Zm-9 7a9 9 0 1 1 18 0 9 9 0 0 1-18 0Z"/><path d="M15.943 15.943a1 1 0 0 1 1.414 0l4.35 4.35a1 1 0 0 1-1.414 1.414l-4.35-4.35a1 1 0 0 1 0-1.414Z"/></g>
</symbol>
<symbol id="share" viewBox="0 0 24 24">
<g fill-rule="evenodd" clip-rule="evenodd"><path d="M18 3a2 2 0 1 0 0 4 2 2 0 0 0 0-4Zm-4 2a4 4 0 1 1 8 0 4 4 0 0 1-8 0ZM6 10a2 2 0 1 0 0 4 2 2 0 0 0 0-4Zm-4 2a4 4 0 1 1 8 0 4 4 0 0 1-8 0ZM18 17a2 2 0 1 0 0 4 2 2 0 0 0 0-4Zm-4 2a4 4 0 1 1 8 0 4 4 0 0 1-8 0Z"/><path d="M7.726 13.007a1 1 0 0 1 1.367-.361l6.83 3.98a1 1 0 0 1-1.007 1.728l-6.83-3.98a1 1 0 0 1-.36-1.367ZM16.274 6.006a1 1 0 0 1-.36 1.368l-6.82 3.98a1 1 0 1 1-1.008-1.728l6.82-3.98a1 1 0 0 1 1.368.36Z"/></g>
</symbol>
<symbol id="star" viewBox="0 0 24 24">
<path fill-rule="evenodd" d="M12 1a1 1 0 0 1 .897.557l2.857 5.79 6.39.934a1 1 0 0 1 .554 1.705l-4.623 4.503 1.09 6.362a1 1 0 0 1-1.45 1.054L12 18.9l-5.715 3.005a1 1 0 0 1-1.45-1.054l1.09-6.362-4.623-4.503a1 1 0 0 1 .553-1.705l6.39-.935 2.858-5.789A1 1 0 0 1 12 1Zm0 3.26L9.807 8.702a1 1 0 0 1-.752.546l-4.907.718 3.55 3.457a1 1 0 0 1 .288.885l-.838 4.883 4.387-2.307a1 1 0 0 1 .93 0l4.387 2.307-.838-4.883a1 1 0 0 1 .288-.885l3.55-3.457-4.907-.718a1 1 0 0 1-.752-.546L12 4.259Z" clip-rule="evenodd"/>
</symbol>
<symbol id="success" viewBox="0 0 24 24">
<path fill="none" stroke="#374FC7" stroke-linecap="round" stroke-linejoin="round" stroke-width="2" d="M22 11.08V12a10 10 0 1 1-5.93-9.14"/><path fill="none" stroke="#374FC7" stroke-linecap="round" stroke-linejoin="round" stroke-width="2" d="M22 4 12 14.01l-3-3"/>
</symbol>
<symbol id="sun" viewBox="0 0 24 24">
<g fill-rule="evenodd" clip-path="url(#a)" clip-rule="evenodd"><path d="M12 8a4 4 0 1 0 0 8 4 4 0 0 0 0-8Zm-6 4a6 6 0 1 1 12 0 6 6 0 0 1-12 0ZM12 0a1 1 0 0 1 1 1v2a1 1 0 1 1-2 0V1a1 1 0 0 1 1-1ZM12 20a1 1 0 0 1 1 1v2a1 1 0 1 1-2 0v-2a1 1 0 0 1 1-1ZM3.513 3.513a1 1 0 0 1 1.414 0l1.42 1.42a1 1 0 0 1-1.414 1.414l-1.42-1.42a1 1 0 0 1 0-1.414ZM17.653 17.653a1 1 0 0 1 1.414 0l1.42 1.42a1 1 0 0 1-1.414 1.414l-1.42-1.42a1 1 0 0 1 0-1.414ZM0 12a1 1 0 0 1 1-1h2a1 1 0 1 1 0 2H1a1 1 0 0 1-1-1ZM20 12a1 1 0 0 1 1-1h2a1 1 0 1 1 0 2h-2a1 1 0 0 1-1-1ZM6.347 17.653a1 1 0 0 1 0 1.414l-1.42 1.42a1 1 0 0 1-1.414-1.414l1.42-1.42a1 1 0 0 1 1.414 0ZM20.487 3.513a1 1 0 0 1 0 1.414l-1.42 1.42a1 1 0 1 1-1.414-1.414l1.42-1.42a1 1 0 0 1 1.414 0Z"/></g>
</symbol>
<symbol id="upload" viewBox="0 0 24 24">
<g fill-rule="evenodd" clip-path="url(#a)" clip-rule="evenodd"><path d="M11.293 11.293a1 1 0 0 1 1.414 0l4 4a1 1 0 0 1-1.414 1.414L12 13.414l-3.293 3.293a1 1 0 0 1-1.414-1.414l4-4Z"/><path d="M12 11a1 1 0 0 1 1 1v9a1 1 0 1 1-2 0v-9a1 1 0 0 1 1-1Z"/><path d="M8.663 2.009A9 9 0 0 1 17.48 8H18a6.002 6.002 0 0 1 5.497 8.398 6 6 0 0 1-2.628 2.87 1 1 0 0 1-.958-1.756A4 4 0 0 0 18 10H16.74a1 1 0 0 1-.968-.75 7 7 0 1 0-12.023 6.388 1 1 0 1 1-1.498 1.324A9 9 0 0 1 8.663 2.01Z"/><path d="M11.293 11.293a1 1 0 0 1 1.414 0l4 4a1 1 0 0 1-1.414 1.414L12 13.414l-3.293 3.293a1 1 0 0 1-1.414-1.414l4-4Z"/></g>
</symbol>
<symbol id="user" viewBox="0 0 24 24">
<g fill-rule="evenodd" clip-rule="evenodd"><path d="M4.464 15.464A5 5 0 0 1 8 14h8a5 5 0 0 1 5 5v2a1 1 0 1 1-2 0v-2a3 3 0 0 0-3-3H8a3 3 0 0 0-3 3v2a1 1 0 1 1-2 0v-2a5 5 0 0 1 1.464-3.536ZM12 4a3 3 0 1 0 0 6 3 3 0 0 0 0-6ZM7 7a5 5 0 1 1 10 0A5 5 0 0 1 7 7Z"/></g>
</symbol>
<symbol id="users" viewBox="0 0 24 24">
<g fill-rule="evenodd" clip-rule="evenodd"><path d="M1.464 15.464A5 5 0 0 1 5 14h8a5 5 0 0 1 5 5v2a1 1 0 1 1-2 0v-2a3 3 0 0 0-3-3H5a3 3 0 0 0-3 3v2a1 1 0 1 1-2 0v-2a5 5 0 0 1 1.464-3.536ZM9 4a3 3 0 1 0 0 6 3 3 0 0 0 0-6ZM4 7a5 5 0 1 1 10 0A5 5 0 0 1 4 7ZM19.032 14.88a1 1 0 0 1 1.218-.718A5 5 0 0 1 24 18.999V21a1 1 0 1 1-2 0v-2a3 3 0 0 0-2.25-2.902 1 1 0 0 1-.718-1.218ZM15.031 2.882a1 1 0 0 1 1.217-.72 5 5 0 0 1 0 9.687 1 1 0 0 1-.496-1.938 3 3 0 0 0 0-5.812 1 1 0 0 1-.72-1.217Z"/></g>
</symbol>
<symbol id="buble" viewBox="0 0 24 24">
<path stroke="#212429" stroke-linecap="round" stroke-linejoin="round" stroke-width="2" d="M19 9.5a8.38 8.38 0 0 1-.9 3.8 8.5 8.5 0 0 1-7.6 4.7 8.379 8.379 0 0 1-3.8-.9L1 19l1.9-5.7A8.38 8.38 0 0 1 2 9.5a8.5 8.5 0 0 1 4.7-7.6 8.38 8.38 0 0 1 3.8-.9h.5a8.48 8.48 0 0 1 8 8v.5Z"/>
</symbol>
<symbol id="close" viewBox="0 0 24 24">
<g fill-rule="evenodd" clip-rule="evenodd"><path d="M18.707 5.293a1 1 0 0 1 0 1.414l-12 12a1 1 0 0 1-1.414-1.414l12-12a1 1 0 0 1 1.414 0Z"/><path d="M5.293 5.293a1 1 0 0 1 1.414 0l12 12a1 1 0 0 1-1.414 1.414l-12-12a1 1 0 0 1 0-1.414Z"/></g>
</symbol>
<symbol id="zap" viewBox="0 0 24 24">
<path fill-rule="evenodd" d="M13.398 1.083a1 1 0 0 1 .594 1.041L13.132 9H21a1 1 0 0 1 .768 1.64l-10 12a1 1 0 0 1-1.76-.764l.86-6.876H3a1 1 0 0 1-.768-1.64l10-12a1 1 0 0 1 1.166-.277ZM5.135 13H12a1 1 0 0 1 .992 1.124l-.577 4.616 6.45-7.74H12a1 1 0 0 1-.992-1.124l.577-4.615L5.135 13Z" clip-rule="evenodd"/>
</symbol>
<symbol id="arrow-close" viewBox="0 0 24 24">
<path stroke="#495057" stroke-linecap="round" stroke-linejoin="round" stroke-width="2" d="m1 1 8 8 8-8" fill="none"/>
</symbol>
<symbol id="error" viewBox="0 0 24 24">
<path fill="none" stroke="#F03D3E" stroke-linecap="round" stroke-linejoin="round" stroke-width="2" d="M10.29 3.86 1.82 18a2 2 0 0 0 1.71 3h16.94a2 2 0 0 0 1.71-3L13.71 3.86a2 2 0 0 0-3.42 0v0ZM12 9v4M12 16v.5"/>
</symbol>
</svg>